<svg xmlns="http://www.w3.org/2000/svg" xmlns:xlink="http://www.w3.org/1999/xlink" version="1.1" preserveAspectRatio="xMidYMid meet" viewBox="-166.382 0 1332.765 1000"><defs><linearGradient id="gradient-ae371fde-835a-4832-a9a4-049bb6fc750b" gradientUnits="objectBoundingBox" x1="0.854" y1="0.146" x2="0.146" y2="0.854"><stop offset="0" stop-color="#00101b" stop-opacity="1"></stop><stop offset="0.063" stop-color="#000f1b" stop-opacity="1"></stop><stop offset="0.125" stop-color="#020e1b" stop-opacity="1"></stop><stop offset="0.188" stop-color="#050d1b" stop-opacity="1"></stop><stop offset="0.25" stop-color="#090c1b" stop-opacity="1"></stop><stop offset="0.313" stop-color="#0c0c1b" stop-opacity="1"></stop><stop offset="0.375" stop-color="#0f0b1a" stop-opacity="1"></stop><stop offset="0.438" stop-color="#120a19" stop-opacity="1"></stop><stop offset="0.5" stop-color="#140918" stop-opacity="1"></stop><stop offset="0.563" stop-color="#160817" stop-opacity="1"></stop><stop offset="0.625" stop-color="#180815" stop-opacity="1"></stop><stop offset="0.688" stop-color="#190714" stop-opacity="1"></stop><stop offset="0.75" stop-color="#1a0712" stop-opacity="1"></stop><stop offset="0.813" stop-color="#1b0610" stop-opacity="1"></stop><stop offset="0.875" stop-color="#1c060d" stop-opacity="1"></stop><stop offset="0.938" stop-color="#1d060a" stop-opacity="1"></stop><stop offset="1" stop-color="#1d0607" stop-opacity="1"></stop></linearGradient><mask id="mask-955b741a-92e3-4f71-942a-4dc435fdd132"><rect x="-166.382" y="0" width="1332.765" height="1000" fill="#fff"></rect></mask><g transform="matrix(3.598, 0, 0, 3.598, 34.611, 388.103)" fill="#fff" stroke="none" stroke-width="1" id="def-e705b33a-59b5-432b-becd-ebd915aefb49"><g transform="translate(-16.5, -18.9)"><g></g><g><path fill="#fff" d=" M82.7,50.6 L63.6,31.3 c-0.3 -0.3 -0.9 -0.3 -1.2,0 c-0.3,0.3 -0.3,0.9,0,1.2 l18.6,18.7 L62.3,70 c-0.3,0.3 -0.3,0.9,0,1.2 c0.2,0.2,0.4,0.3,0.6,0.3 c0.2,0,0.5 -0.1,0.6 -0.3 l19.2 -19.3 C83.1,51.5,83.1,51,82.7,50.6 z"></path><path fill="#fff" d=" M38.9,31.3 c-0.3 -0.3 -0.9 -0.3 -1.2,0 L18.5,50.6 c-0.3,0.3 -0.3,0.9,0,1.2 l19.2,19.3 c0.2,0.2,0.4,0.3,0.6,0.3 c0.2,0,0.4 -0.1,0.6 -0.3 c0.3 -0.3,0.3 -0.9,0 -1.2 L20.4,51.2 l18.6 -18.7 C39.3,32.2,39.3,31.6,38.9,31.3 z"></path><path fill="#fff" d=" M59.8,21.9 c-0.5 -0.1 -1,0.1 -1.1,0.6 L40.8,79.5 c-0.1,0.5,0.1,1,0.6,1.1 c0.1,0,0.2,0,0.3,0 c0.4,0,0.7 -0.2,0.8 -0.6 L60.4,23 C60.5,22.5,60.3,22,59.8,21.9 z"></path></g></g></g><path d="M389.445,511.009 L366.93,475.645 L359.198,475.645 Q359.994,479.284,359.994,483.378 L359.994,483.378 L359.994,511.009 L345.78,511.009 L345.78,432.549 L359.994,432.549 L359.994,455.632 Q359.994,460.636,359.198,464.729 L359.198,464.729 L366.93,464.729 L388.422,432.549 L403.886,432.549 L382.736,464.161 Q380.803,467.231,377.505,470.074 L377.505,470.074 L377.505,470.415 Q381.485,473.712,383.646,477.124 L383.646,477.124 L405.364,511.009 L389.445,511.009 Z M456.648,488.95 L456.648,488.95 L433.906,488.95 Q434.702,496.227,437.999,498.672 Q441.297,501.117,448.802,501.117 L448.802,501.117 Q457.33,501.117,468.815,499.752 L468.815,499.752 L470.066,508.621 Q462.22,512.374,447.096,512.374 Q431.973,512.374,425.605,505.665 Q419.237,498.956,419.237,483.037 L419.237,483.037 Q419.237,466.776,425.491,460.238 Q431.745,453.699,446.187,453.699 L446.187,453.699 Q459.491,453.699,465.517,458.532 Q471.544,463.365,471.544,473.03 L471.544,473.03 Q471.544,488.95,456.648,488.95 Z M433.678,479.284 L433.678,479.284 L452.782,479.284 Q457.785,479.284,457.785,472.803 L457.785,472.803 Q457.785,468.254,455.397,466.435 Q453.009,464.615,446.755,464.615 L446.755,464.615 Q439.478,464.615,436.692,467.629 Q433.906,470.642,433.678,479.284 Z M493.149,455.291 L504.747,455.291 L505.657,463.478 Q518.62,453.699,529.764,453.699 L529.764,453.699 Q537.155,453.699,541.135,457.679 Q545.115,461.659,545.115,469.164 L545.115,469.164 L545.115,511.009 L531.242,511.009 L531.242,473.371 Q531.242,468.709,529.991,467.06 Q528.74,465.411,525.329,465.411 L525.329,465.411 Q521.463,465.411,517.426,467.003 Q513.389,468.595,507.022,472.234 L507.022,472.234 L507.022,511.009 L493.149,511.009 L493.149,455.291 Z M608.565,430.275 L607.428,440.054 L596.512,440.054 Q591.85,440.054,589.974,441.817 Q588.097,443.579,588.097,447.9 L588.097,447.9 L588.097,455.291 L604.358,455.291 L604.358,465.298 L588.097,465.298 L588.097,511.009 L574.225,511.009 L574.225,465.298 L564.332,465.298 L564.332,455.86 L574.225,455.291 L574.225,446.081 Q574.225,437.893,578.318,433.572 Q582.412,429.251,591.622,429.251 L591.622,429.251 Q602.539,429.251,608.565,430.275 L608.565,430.275 Z M647.909,453.699 L647.909,453.699 Q662.919,453.699,669.116,460.408 Q675.313,467.117,675.313,483.15 Q675.313,499.183,669.116,505.836 Q662.919,512.488,647.909,512.488 L647.909,512.488 Q632.786,512.488,626.531,505.836 Q620.277,499.183,620.277,483.15 Q620.277,467.117,626.531,460.408 Q632.786,453.699,647.909,453.699 Z M647.909,464.729 L647.909,464.729 Q640.177,464.729,637.448,468.538 Q634.719,472.348,634.719,483.15 L634.719,483.15 Q634.719,493.839,637.448,497.648 Q640.177,501.458,647.909,501.458 L647.909,501.458 Q655.414,501.458,658.2,497.648 Q660.986,493.839,660.986,483.15 L660.986,483.15 Q660.986,472.348,658.2,468.538 Q655.414,464.729,647.909,464.729 Z M734.102,511.009 L720.115,487.13 L718.523,487.13 L704.537,511.009 L689.982,511.009 L707.607,482.354 L691.347,455.291 L705.788,455.291 L718.41,477.124 L720.229,477.124 L732.851,455.291 L747.292,455.291 L731.032,482.354 L748.657,511.009 L734.102,511.009 Z M806.422,430.275 L805.284,440.054 L794.368,440.054 Q789.706,440.054,787.83,441.817 Q785.954,443.579,785.954,447.9 L785.954,447.9 L785.954,455.291 L802.214,455.291 L802.214,465.298 L785.954,465.298 L785.954,511.009 L772.081,511.009 L772.081,465.298 L762.188,465.298 L762.188,455.86 L772.081,455.291 L772.081,446.081 Q772.081,437.893,776.175,433.572 Q780.268,429.251,789.479,429.251 L789.479,429.251 Q800.395,429.251,806.422,430.275 L806.422,430.275 Z M825.298,431.071 L825.298,431.071 L831.665,431.071 Q835.645,431.071,835.645,435.051 L835.645,435.051 L835.645,441.305 Q835.645,445.285,831.665,445.285 L831.665,445.285 L825.298,445.285 Q821.318,445.285,821.318,441.305 L821.318,441.305 L821.318,435.051 Q821.318,431.071,825.298,431.071 Z M835.418,455.291 L835.418,511.009 L821.659,511.009 L821.659,455.291 L835.418,455.291 Z M895.457,453.699 L898.186,453.699 L896.708,466.662 L892.728,466.662 Q886.815,466.662,874.307,471.666 L874.307,471.666 L874.307,511.009 L860.434,511.009 L860.434,455.291 L871.237,455.291 L872.487,463.478 Q884.427,453.699,895.457,453.699 L895.457,453.699 Z M950.493,488.95 L950.493,488.95 L927.751,488.95 Q928.547,496.227,931.844,498.672 Q935.142,501.117,942.647,501.117 L942.647,501.117 Q951.175,501.117,962.66,499.752 L962.66,499.752 L963.911,508.621 Q956.065,512.374,940.941,512.374 Q925.818,512.374,919.45,505.665 Q913.082,498.956,913.082,483.037 L913.082,483.037 Q913.082,466.776,919.336,460.238 Q925.59,453.699,940.031,453.699 L940.031,453.699 Q953.336,453.699,959.362,458.532 Q965.389,463.365,965.389,473.03 L965.389,473.03 Q965.389,488.95,950.493,488.95 Z M927.523,479.284 L927.523,479.284 L946.627,479.284 Q951.63,479.284,951.63,472.803 L951.63,472.803 Q951.63,468.254,949.242,466.435 Q946.854,464.615,940.6,464.615 L940.6,464.615 Q933.323,464.615,930.537,467.629 Q927.751,470.642,927.523,479.284 Z" id="def-89c8b7a8-2cd4-45c0-a360-c53e4ca63d45"></path><path d="M345.529,570.463 L345.529,539.445 Q345.529,535.574,347.569,533.822 Q349.609,532.07,352.59,532.07 L352.59,532.07 Q359.966,532.07,368.596,532.488 L368.596,532.488 L368.596,534.842 L353.323,534.842 Q351.074,534.842,349.818,536.097 Q348.563,537.353,348.563,539.811 L348.563,539.811 L348.563,550.796 L366.399,551.057 L366.399,553.306 L348.563,553.568 L348.563,570.463 L345.529,570.463 Z M377.07,570.463 L377.07,532.07 L380.104,532.07 L380.104,570.463 L377.07,570.463 Z M390.722,570.463 L390.722,532.07 L405.63,532.07 Q409.919,532.07,412.613,534.345 Q415.306,536.62,415.306,543.054 L415.306,543.054 Q415.306,548.86,413.083,551.162 Q410.86,553.463,407.617,553.934 L407.617,553.934 L415.672,570.463 L412.639,570.463 L404.74,554.248 Q399.719,554.248,393.756,554.039 L393.756,554.039 L393.756,570.463 L390.722,570.463 Z M393.756,551.737 L405.263,551.737 Q408.559,551.737,410.416,549.933 Q412.273,548.128,412.273,543.054 L412.273,543.054 Q412.273,538.242,410.389,536.516 Q408.506,534.79,405.263,534.79 L405.263,534.79 L393.756,534.79 L393.756,551.737 Z M432.097,570.672 Q428.697,570.672,426.5,569.26 Q424.303,567.848,424.303,563.506 L424.303,563.506 L424.303,539.445 Q424.303,535.574,426.343,533.822 Q428.383,532.07,431.365,532.07 L431.365,532.07 Q434.137,532.07,443.657,532.331 L443.657,532.331 L447.37,532.488 L447.37,534.842 L432.149,534.842 Q429.848,534.842,428.592,536.071 Q427.337,537.3,427.337,539.811 L427.337,539.811 L427.337,550.011 L445.174,550.273 L445.174,552.522 L427.337,552.783 L427.337,562.931 Q427.337,565.86,428.749,566.854 Q430.161,567.848,432.515,567.848 L432.515,567.848 L447.37,567.848 L447.37,570.201 Q440.466,570.515,432.097,570.672 L432.097,570.672 Z M458.407,560.106 L457.989,532.122 L461.023,532.122 L460.552,560.106 L458.407,560.106 Z M458.669,570.463 Q458.355,570.463,458.146,570.28 Q457.936,570.097,457.936,569.731 L457.936,569.731 L457.936,565.912 Q457.936,565.18,458.669,565.18 L458.669,565.18 L460.343,565.18 Q461.075,565.18,461.075,565.912 L461.075,565.912 L461.075,569.731 Q461.075,570.463,460.343,570.463 L460.343,570.463 L458.669,570.463 Z M474.256,560.106 L473.838,532.122 L476.872,532.122 L476.401,560.106 L474.256,560.106 Z M474.518,570.463 Q474.204,570.463,473.995,570.28 Q473.785,570.097,473.785,569.731 L473.785,569.731 L473.785,565.912 Q473.785,565.18,474.518,565.18 L474.518,565.18 L476.192,565.18 Q476.924,565.18,476.924,565.912 L476.924,565.912 L476.924,569.731 Q476.924,570.463,476.192,570.463 L476.192,570.463 L474.518,570.463 Z" id="def-13d9d0cb-514d-42ad-b2c4-7d80cbb8c6ef"></path><mask id="mask-73fd1ed6-fa38-4a41-b29d-0c7d4da66537" x="23.421" y="376.913" width="961.485" height="246.174" maskUnits="userSpaceOnUse" stroke-width="0"><rect x="34.611" y="388.103" width="939.106" height="223.795" fill="#000"></rect><use xlink:href="#def-e705b33a-59b5-432b-becd-ebd915aefb49" fill="#fff" stroke="#fff"></use><use xlink:href="#def-89c8b7a8-2cd4-45c0-a360-c53e4ca63d45" fill="#fff" stroke="#fff"></use><use xlink:href="#def-13d9d0cb-514d-42ad-b2c4-7d80cbb8c6ef" fill="#fff" stroke="#fff"></use></mask></defs><rect id="background-2c858165-9efa-4c73-bd4f-5056a828cb82" x="-166.382" y="0" width="1332.765" height="1000" fill="url(#gradient-ae371fde-835a-4832-a9a4-049bb6fc750b)"></rect><g mask="url(#mask-955b741a-92e3-4f71-942a-4dc435fdd132)"><g transform="translate(500, 500) scale(1.333) translate(-500, -500)"><path d="M500,500 L1000,0 A707.107,707.107 45 0 1 0,1000 L500,500 Z" fill="#57294d" fill-opacity="0.242"></path></g></g><g mask="url(#mask-73fd1ed6-fa38-4a41-b29d-0c7d4da66537)"><rect x="34.611" y="388.103" width="939.106" height="223.795" fill="#ff368b"></rect></g></svg>