<svg width="1982.9999999999998" height="999.9999999999999" xmlns="http://www.w3.org/2000/svg" xmlns:xlink="http://www.w3.org/1999/xlink" preserveAspectRatio="xMidYMid meet">
 <defs>
  <mask id="mask-955b741a-92e3-4f71-942a-4dc435fdd132">
   <rect x="-166.382" y="0" width="1332.765" height="1000" fill="#fff" id="svg_1"/>
  </mask>
  <g transform="matrix(3.598, 0, 0, 3.598, 34.611, 388.103)" fill="#fff" id="def-e705b33a-59b5-432b-becd-ebd915aefb49">
   <g id="svg_2">
    <g id="svg_3"/>
    <g id="svg_4">
     <path fill="#fff" d="m66.2,31.7l-19.1,-19.3c-0.3,-0.3 -0.9,-0.3 -1.2,0c-0.3,0.3 -0.3,0.9 0,1.2l18.6,18.7l-18.7,18.8c-0.3,0.3 -0.3,0.9 0,1.2c0.2,0.2 0.4,0.3 0.6,0.3c0.2,0 0.5,-0.1 0.6,-0.3l19.2,-19.3c0.4,-0.4 0.4,-0.9 0,-1.3z" id="svg_5"/>
     <path fill="#fff" d="m22.4,12.4c-0.3,-0.3 -0.9,-0.3 -1.2,0l-19.2,19.3c-0.3,0.3 -0.3,0.9 0,1.2l19.2,19.3c0.2,0.2 0.4,0.3 0.6,0.3c0.2,0 0.4,-0.1 0.6,-0.3c0.3,-0.3 0.3,-0.9 0,-1.2l-18.5,-18.7l18.6,-18.7c0.3,-0.3 0.3,-0.9 -0.1,-1.2z" id="svg_6"/>
     <path fill="#fff" d="m43.3,3c-0.5,-0.1 -1,0.1 -1.1,0.6l-17.9,57c-0.1,0.5 0.1,1 0.6,1.1c0.1,0 0.2,0 0.3,0c0.4,0 0.7,-0.2 0.8,-0.6l17.9,-57c0.1,-0.5 -0.1,-1 -0.6,-1.1z" id="svg_7"/>
    </g>
   </g>
  </g>
  <path d="m389.445,511.009l-22.515,-35.364l-7.732,0q0.796,3.639 0.796,7.733l0,0l0,27.631l-14.214,0l0,-78.46l14.214,0l0,23.083q0,5.004 -0.796,9.097l0,0l7.732,0l21.492,-32.18l15.464,0l-21.15,31.612q-1.933,3.07 -5.231,5.913l0,0l0,0.341q3.98,3.297 6.141,6.709l0,0l21.718,33.885l-15.919,0zm67.203,-22.059l0,0l-22.742,0q0.796,7.277 4.093,9.722q3.298,2.445 10.803,2.445l0,0q8.528,0 20.013,-1.365l0,0l1.251,8.869q-7.846,3.753 -22.97,3.753q-15.123,0 -21.491,-6.709q-6.368,-6.709 -6.368,-22.628l0,0q0,-16.261 6.254,-22.799q6.254,-6.539 20.696,-6.539l0,0q13.304,0 19.33,4.833q6.027,4.833 6.027,14.498l0,0q0,15.92 -14.896,15.92zm-22.97,-9.666l0,0l19.104,0q5.003,0 5.003,-6.481l0,0q0,-4.549 -2.388,-6.368q-2.388,-1.82 -8.642,-1.82l0,0q-7.277,0 -10.063,3.014q-2.786,3.013 -3.014,11.655zm59.471,-23.993l11.598,0l0.91,8.187q12.963,-9.779 24.107,-9.779l0,0q7.391,0 11.371,3.98q3.98,3.98 3.98,11.485l0,0l0,41.845l-13.873,0l0,-37.638q0,-4.662 -1.251,-6.311q-1.251,-1.649 -4.662,-1.649l0,0q-3.866,0 -7.903,1.592q-4.037,1.592 -10.404,5.231l0,0l0,38.775l-13.873,0l0,-55.718zm115.416,-25.016l-1.137,9.779l-10.916,0q-4.662,0 -6.538,1.763q-1.877,1.762 -1.877,6.083l0,0l0,7.391l16.261,0l0,10.007l-16.261,0l0,45.711l-13.872,0l0,-45.711l-9.893,0l0,-9.438l9.893,-0.569l0,-9.21q0,-8.188 4.093,-12.509q4.094,-4.321 13.304,-4.321l0,0q10.917,0 16.943,1.024l0,0zm39.344,23.424l0,0q15.01,0 21.207,6.709q6.197,6.709 6.197,22.742q0,16.033 -6.197,22.686q-6.197,6.652 -21.207,6.652l0,0q-15.123,0 -21.378,-6.652q-6.254,-6.653 -6.254,-22.686q0,-16.033 6.254,-22.742q6.255,-6.709 21.378,-6.709zm0,11.03l0,0q-7.732,0 -10.461,3.809q-2.729,3.81 -2.729,14.612l0,0q0,10.689 2.729,14.498q2.729,3.81 10.461,3.81l0,0q7.505,0 10.291,-3.81q2.786,-3.809 2.786,-14.498l0,0q0,-10.802 -2.786,-14.612q-2.786,-3.809 -10.291,-3.809zm86.193,46.28l-13.987,-23.879l-1.592,0l-13.986,23.879l-14.555,0l17.625,-28.655l-16.26,-27.063l14.441,0l12.622,21.833l1.819,0l12.622,-21.833l14.441,0l-16.26,27.063l17.625,28.655l-14.555,0zm72.32,-80.734l-1.138,9.779l-10.916,0q-4.662,0 -6.538,1.763q-1.876,1.762 -1.876,6.083l0,0l0,7.391l16.26,0l0,10.007l-16.26,0l0,45.711l-13.873,0l0,-45.711l-9.893,0l0,-9.438l9.893,-0.569l0,-9.21q0,-8.188 4.094,-12.509q4.093,-4.321 13.304,-4.321l0,0q10.916,0 16.943,1.024l0,0zm18.876,0.796l0,0l6.367,0q3.98,0 3.98,3.98l0,0l0,6.254q0,3.98 -3.98,3.98l0,0l-6.367,0q-3.98,0 -3.98,-3.98l0,0l0,-6.254q0,-3.98 3.98,-3.98zm10.12,24.22l0,55.718l-13.759,0l0,-55.718l13.759,0zm60.039,-1.592l2.729,0l-1.478,12.963l-3.98,0q-5.913,0 -18.421,5.004l0,0l0,39.343l-13.873,0l0,-55.718l10.803,0l1.25,8.187q11.94,-9.779 22.97,-9.779l0,0zm55.036,35.251l0,0l-22.742,0q0.796,7.277 4.093,9.722q3.298,2.445 10.803,2.445l0,0q8.528,0 20.013,-1.365l0,0l1.251,8.869q-7.846,3.753 -22.97,3.753q-15.123,0 -21.491,-6.709q-6.368,-6.709 -6.368,-22.628l0,0q0,-16.261 6.254,-22.799q6.254,-6.539 20.695,-6.539l0,0q13.305,0 19.331,4.833q6.027,4.833 6.027,14.498l0,0q0,15.92 -14.896,15.92zm-22.97,-9.666l0,0l19.104,0q5.003,0 5.003,-6.481l0,0q0,-4.549 -2.388,-6.368q-2.388,-1.82 -8.642,-1.82l0,0q-7.277,0 -10.063,3.014q-2.786,3.013 -3.014,11.655z" id="def-89c8b7a8-2cd4-45c0-a360-c53e4ca63d45"/>
  <path d="m345.529,570.463l0,-31.018q0,-3.871 2.04,-5.623q2.04,-1.752 5.021,-1.752l0,0q7.376,0 16.006,0.418l0,0l0,2.354l-15.273,0q-2.249,0 -3.505,1.255q-1.255,1.256 -1.255,3.714l0,0l0,10.985l17.836,0.261l0,2.249l-17.836,0.262l0,16.895l-3.034,0zm31.541,0l0,-38.393l3.034,0l0,38.393l-3.034,0zm13.652,0l0,-38.393l14.908,0q4.289,0 6.983,2.275q2.693,2.275 2.693,8.709l0,0q0,5.806 -2.223,8.108q-2.223,2.301 -5.466,2.772l0,0l8.055,16.529l-3.033,0l-7.899,-16.215q-5.021,0 -10.984,-0.209l0,0l0,16.424l-3.034,0zm3.034,-18.726l11.507,0q3.296,0 5.153,-1.804q1.857,-1.805 1.857,-6.879l0,0q0,-4.812 -1.884,-6.538q-1.883,-1.726 -5.126,-1.726l0,0l-11.507,0l0,16.947zm38.341,18.935q-3.4,0 -5.597,-1.412q-2.197,-1.412 -2.197,-5.754l0,0l0,-24.061q0,-3.871 2.04,-5.623q2.04,-1.752 5.022,-1.752l0,0q2.772,0 12.292,0.261l0,0l3.713,0.157l0,2.354l-15.221,0q-2.301,0 -3.557,1.229q-1.255,1.229 -1.255,3.74l0,0l0,10.2l17.837,0.262l0,2.249l-17.837,0.261l0,10.148q0,2.929 1.412,3.923q1.412,0.994 3.766,0.994l0,0l14.855,0l0,2.353q-6.904,0.314 -15.273,0.471l0,0zm26.31,-10.566l-0.418,-27.984l3.034,0l-0.471,27.984l-2.145,0zm0.262,10.357q-0.314,0 -0.523,-0.183q-0.21,-0.183 -0.21,-0.549l0,0l0,-3.819q0,-0.732 0.733,-0.732l0,0l1.674,0q0.732,0 0.732,0.732l0,0l0,3.819q0,0.732 -0.732,0.732l0,0l-1.674,0zm15.587,-10.357l-0.418,-27.984l3.034,0l-0.471,27.984l-2.145,0zm0.262,10.357q-0.314,0 -0.523,-0.183q-0.21,-0.183 -0.21,-0.549l0,0l0,-3.819q0,-0.732 0.733,-0.732l0,0l1.674,0q0.732,0 0.732,0.732l0,0l0,3.819q0,0.732 -0.732,0.732l0,0l-1.674,0z" id="def-13d9d0cb-514d-42ad-b2c4-7d80cbb8c6ef"/>
  <mask id="mask-73fd1ed6-fa38-4a41-b29d-0c7d4da66537" x="23.421" y="376.913" width="961.485" height="246.174" maskUnits="userSpaceOnUse">
   <rect x="34.611" y="388.103" width="939.106" height="223.795" fill="#000" id="svg_8"/>
   <use xlink:href="#def-e705b33a-59b5-432b-becd-ebd915aefb49" fill="#fff" stroke="#fff" id="svg_9"/>
   <use xlink:href="#def-89c8b7a8-2cd4-45c0-a360-c53e4ca63d45" fill="#fff" stroke="#fff" id="svg_10"/>
   <use xlink:href="#def-13d9d0cb-514d-42ad-b2c4-7d80cbb8c6ef" fill="#fff" stroke="#fff" id="svg_11"/>
  </mask>
  <linearGradient id="gradient-ae371fde-835a-4832-a9a4-049bb6fc750b" gradientUnits="objectBoundingBox" x1="0.854" y1="0.146" x2="0.146" y2="0.854">
   <stop offset="0" stop-color="#00101b"/>
   <stop offset="0.063" stop-color="#000f1b"/>
   <stop offset="0.125" stop-color="#020e1b"/>
   <stop offset="0.188" stop-color="#050d1b"/>
   <stop offset="0.25" stop-color="#090c1b"/>
   <stop offset="0.313" stop-color="#0c0c1b"/>
   <stop offset="0.375" stop-color="#0f0b1a"/>
   <stop offset="0.438" stop-color="#120a19"/>
   <stop offset="0.5" stop-color="#140918"/>
   <stop offset="0.563" stop-color="#160817"/>
   <stop offset="0.625" stop-color="#180815"/>
   <stop offset="0.688" stop-color="#190714"/>
   <stop offset="0.75" stop-color="#1a0712"/>
   <stop offset="0.813" stop-color="#1b0610"/>
   <stop offset="0.875" stop-color="#1c060d"/>
   <stop offset="0.938" stop-color="#1d060a"/>
   <stop offset="1" stop-color="#1d0607"/>
  </linearGradient>
 </defs>
 <g>
  <title>Layer 1</title>
  <rect id="background-2c858165-9efa-4c73-bd4f-5056a828cb82" x="1.4899" y="-3.3352" width="1979.79453" height="1000" fill="url(#gradient-ae371fde-835a-4832-a9a4-049bb6fc750b)" stroke="null"/>
  <g mask="url(#mask-955b741a-92e3-4f71-942a-4dc435fdd132)" id="svg_12" stroke="null">
   <g id="svg_13" stroke="null">
    <path d="m533.69578,496.94274l681.01843,-666.49997a963.1058,942.57359 45 0 1 -1362.03686,1332.99994l681.01843,-666.49997z" fill="#57294d" fill-opacity="0.242" id="svg_14" stroke="null"/>
   </g>
  </g>
  <g mask="url(#mask-73fd1ed6-fa38-4a41-b29d-0c7d4da66537)" id="svg_15" stroke="null">
   <rect x="29.05238" y="386.99126" width="952.44676" height="224.90674" fill="#ff368b" id="svg_16" stroke="null"/>
  </g>
 </g>
</svg>